%TF.GenerationSoftware,Altium Limited,Altium Designer,22.4.2 (48)*%
G04 Layer_Color=8388736*
%FSLAX26Y26*%
%MOIN*%
%TF.SameCoordinates,1D6083A4-B0D1-454E-9E19-CDC9BC75F0E8*%
%TF.FilePolarity,Negative*%
%TF.FileFunction,Soldermask,Top*%
%TF.Part,Single*%
G01*
G75*
%TA.AperFunction,SMDPad,CuDef*%
%ADD13R,0.045468X0.057331*%
%ADD15R,0.039626X0.055442*%
%ADD16C,0.010000*%
%ADD17R,0.060009X0.022755*%
G04:AMPARAMS|DCode=18|XSize=60.009mil|YSize=22.755mil|CornerRadius=11.378mil|HoleSize=0mil|Usage=FLASHONLY|Rotation=0.000|XOffset=0mil|YOffset=0mil|HoleType=Round|Shape=RoundedRectangle|*
%AMROUNDEDRECTD18*
21,1,0.060009,0.000000,0,0,0.0*
21,1,0.037254,0.022755,0,0,0.0*
1,1,0.022755,0.018627,0.000000*
1,1,0.022755,-0.018627,0.000000*
1,1,0.022755,-0.018627,0.000000*
1,1,0.022755,0.018627,0.000000*
%
%ADD18ROUNDEDRECTD18*%
%ADD19R,0.027559X0.037402*%
%ADD20C,0.040000*%
%ADD22R,0.047244X0.011811*%
%ADD23R,0.011811X0.047244*%
%ADD25O,0.009842X0.078740*%
%ADD32R,0.032480X0.052165*%
%ADD37O,0.009842X0.055118*%
%ADD38O,0.055118X0.009842*%
%ADD43R,0.021654X0.031496*%
G04:AMPARAMS|DCode=44|XSize=37.682mil|YSize=9.546mil|CornerRadius=4.773mil|HoleSize=0mil|Usage=FLASHONLY|Rotation=180.000|XOffset=0mil|YOffset=0mil|HoleType=Round|Shape=RoundedRectangle|*
%AMROUNDEDRECTD44*
21,1,0.037682,0.000000,0,0,180.0*
21,1,0.028136,0.009546,0,0,180.0*
1,1,0.009546,-0.014068,0.000000*
1,1,0.009546,0.014068,0.000000*
1,1,0.009546,0.014068,0.000000*
1,1,0.009546,-0.014068,0.000000*
%
%ADD44ROUNDEDRECTD44*%
%ADD45R,0.055442X0.039626*%
%ADD46R,0.049213X0.049213*%
G04:AMPARAMS|DCode=47|XSize=9.546mil|YSize=37.682mil|CornerRadius=4.773mil|HoleSize=0mil|Usage=FLASHONLY|Rotation=180.000|XOffset=0mil|YOffset=0mil|HoleType=Round|Shape=RoundedRectangle|*
%AMROUNDEDRECTD47*
21,1,0.009546,0.028136,0,0,180.0*
21,1,0.000000,0.037682,0,0,180.0*
1,1,0.009546,0.000000,0.014068*
1,1,0.009546,0.000000,0.014068*
1,1,0.009546,0.000000,-0.014068*
1,1,0.009546,0.000000,-0.014068*
%
%ADD47ROUNDEDRECTD47*%
%ADD48R,0.052165X0.032480*%
%ADD57R,0.053272X0.039848*%
%ADD60R,0.037682X0.009546*%
%TA.AperFunction,ComponentPad*%
%ADD84C,0.061811*%
%TA.AperFunction,NonConductor*%
%ADD101C,0.010000*%
%ADD112C,0.012000*%
%ADD114C,0.014000*%
%TA.AperFunction,FiducialPad,Global*%
%ADD115C,0.120000*%
%TA.AperFunction,SMDPad,CuDef*%
%ADD116R,0.043433X0.063118*%
%ADD117R,0.057150X0.059512*%
%ADD118R,0.086740X0.082803*%
%ADD119R,0.031622X0.032409*%
%ADD120R,0.043433X0.051307*%
%ADD121R,0.051307X0.047370*%
%ADD122R,0.047370X0.051307*%
%ADD123R,0.045402X0.049339*%
%ADD124R,0.032409X0.031622*%
%ADD125R,0.045402X0.047370*%
%ADD126R,0.051307X0.043433*%
%ADD127R,0.086740X0.086740*%
%ADD128R,0.039496X0.039496*%
%ADD129R,0.039496X0.039496*%
%ADD130R,0.067055X0.067055*%
%ADD131R,0.067055X0.067055*%
%ADD132R,0.040677X0.045008*%
%ADD133R,0.082803X0.035559*%
%ADD134R,0.045402X0.063118*%
%ADD135R,0.330835X0.110362*%
%ADD136R,0.063118X0.043433*%
%ADD137R,0.065087X0.049339*%
%ADD138R,0.059512X0.057150*%
%ADD139R,0.047370X0.047370*%
G04:AMPARAMS|DCode=140|XSize=39.496mil|YSize=39.496mil|CornerRadius=11.874mil|HoleSize=0mil|Usage=FLASHONLY|Rotation=270.000|XOffset=0mil|YOffset=0mil|HoleType=Round|Shape=RoundedRectangle|*
%AMROUNDEDRECTD140*
21,1,0.039496,0.015748,0,0,270.0*
21,1,0.015748,0.039496,0,0,270.0*
1,1,0.023748,-0.007874,-0.007874*
1,1,0.023748,-0.007874,0.007874*
1,1,0.023748,0.007874,0.007874*
1,1,0.023748,0.007874,-0.007874*
%
%ADD140ROUNDEDRECTD140*%
%ADD141R,0.143039X0.059575*%
%ADD142R,0.041465X0.045402*%
%ADD143R,0.070992X0.055244*%
%ADD144R,0.094614X0.055244*%
%ADD145R,0.070992X0.063118*%
%TA.AperFunction,ComponentPad*%
G04:AMPARAMS|DCode=146|XSize=73mil|YSize=118mil|CornerRadius=20.25mil|HoleSize=0mil|Usage=FLASHONLY|Rotation=180.000|XOffset=0mil|YOffset=0mil|HoleType=Round|Shape=RoundedRectangle|*
%AMROUNDEDRECTD146*
21,1,0.073000,0.077500,0,0,180.0*
21,1,0.032500,0.118000,0,0,180.0*
1,1,0.040500,-0.016250,0.038750*
1,1,0.040500,0.016250,0.038750*
1,1,0.040500,0.016250,-0.038750*
1,1,0.040500,-0.016250,-0.038750*
%
%ADD146ROUNDEDRECTD146*%
%ADD147R,0.078000X0.078000*%
%ADD148C,0.078000*%
%ADD149C,0.067055*%
%ADD150R,0.067055X0.067055*%
%ADD151C,0.039496*%
%ADD152C,0.075913*%
%ADD153R,0.075913X0.075913*%
%ADD154C,0.050126*%
G04:AMPARAMS|DCode=155|XSize=70.992mil|YSize=70.992mil|CornerRadius=19.748mil|HoleSize=0mil|Usage=FLASHONLY|Rotation=180.000|XOffset=0mil|YOffset=0mil|HoleType=Round|Shape=RoundedRectangle|*
%AMROUNDEDRECTD155*
21,1,0.070992,0.031496,0,0,180.0*
21,1,0.031496,0.070992,0,0,180.0*
1,1,0.039496,-0.015748,0.015748*
1,1,0.039496,0.015748,0.015748*
1,1,0.039496,0.015748,-0.015748*
1,1,0.039496,-0.015748,-0.015748*
%
%ADD155ROUNDEDRECTD155*%
%ADD156C,0.070992*%
%ADD157C,0.126110*%
%ADD158C,0.068236*%
%ADD159C,0.059181*%
G04:AMPARAMS|DCode=160|XSize=59.181mil|YSize=59.181mil|CornerRadius=16.795mil|HoleSize=0mil|Usage=FLASHONLY|Rotation=180.000|XOffset=0mil|YOffset=0mil|HoleType=Round|Shape=RoundedRectangle|*
%AMROUNDEDRECTD160*
21,1,0.059181,0.025591,0,0,180.0*
21,1,0.025591,0.059181,0,0,180.0*
1,1,0.033590,-0.012795,0.012795*
1,1,0.033590,0.012795,0.012795*
1,1,0.033590,0.012795,-0.012795*
1,1,0.033590,-0.012795,-0.012795*
%
%ADD160ROUNDEDRECTD160*%
%ADD161R,0.068236X0.068236*%
%ADD162R,0.067055X0.067055*%
%TA.AperFunction,ViaPad*%
%ADD163C,0.032000*%
%ADD164C,0.046000*%
%ADD165C,0.045000*%
%ADD166C,0.185165*%
%ADD167C,0.044000*%
%ADD168C,0.155000*%
%ADD169C,0.050000*%
G36*
X255000Y1220000D02*
X265000Y1210000D01*
Y1205000D01*
X290000D01*
X295000Y1210000D01*
Y1240000D01*
X290000Y1245000D01*
Y1255000D01*
X280000D01*
X275000Y1260000D01*
X265000D01*
X255000Y1250000D01*
Y1240000D01*
Y1220000D01*
D02*
G37*
G36*
X1260000Y280000D02*
X1270000Y290000D01*
X1275000D01*
Y315000D01*
X1270000Y320000D01*
X1240000D01*
X1235000Y315000D01*
X1225000D01*
Y305000D01*
X1220000Y300000D01*
Y290000D01*
X1230000Y280000D01*
X1240000D01*
X1260000D01*
D02*
G37*
G36*
X2360000Y1010000D02*
X2350000Y1020000D01*
Y1025000D01*
X2325000D01*
X2320000Y1020000D01*
Y990000D01*
X2325000Y985000D01*
Y975000D01*
X2335000D01*
X2340000Y970000D01*
X2350000D01*
X2360000Y980000D01*
Y990000D01*
Y1010000D01*
D02*
G37*
G36*
X2500000Y885000D02*
X2510000Y875000D01*
Y870000D01*
X2535000D01*
X2540000Y875000D01*
Y905000D01*
X2535000Y910000D01*
Y920000D01*
X2525000D01*
X2520000Y925000D01*
X2510000D01*
X2500000Y915000D01*
Y905000D01*
Y885000D01*
D02*
G37*
G36*
X120000Y2430000D02*
X130000Y2420000D01*
Y2415000D01*
X155000D01*
X160000Y2420000D01*
Y2450000D01*
X155000Y2455000D01*
Y2465000D01*
X145000D01*
X140000Y2470000D01*
X130000D01*
X120000Y2460000D01*
Y2450000D01*
Y2430000D01*
D02*
G37*
G36*
X115000Y2600000D02*
X125000Y2610000D01*
X130000D01*
Y2635000D01*
X125000Y2640000D01*
X95000D01*
X90000Y2635000D01*
X80000D01*
Y2625000D01*
X75000Y2620000D01*
Y2610000D01*
X85000Y2600000D01*
X95000D01*
X115000D01*
D02*
G37*
G36*
X415000Y3215000D02*
X405000Y3205000D01*
X400000D01*
Y3180000D01*
X405000Y3175000D01*
X435000D01*
X440000Y3180000D01*
X450000D01*
Y3190000D01*
X455000Y3195000D01*
Y3205000D01*
X445000Y3215000D01*
X435000D01*
X415000D01*
D02*
G37*
G36*
X1120000Y3485000D02*
X1110000Y3475000D01*
X1105000D01*
Y3450000D01*
X1110000Y3445000D01*
X1140000D01*
X1145000Y3450000D01*
X1155000D01*
Y3460000D01*
X1160000Y3465000D01*
Y3475000D01*
X1150000Y3485000D01*
X1140000D01*
X1120000D01*
D02*
G37*
G36*
X1730000Y3285000D02*
X1740000Y3275000D01*
Y3270000D01*
X1765000D01*
X1770000Y3275000D01*
Y3305000D01*
X1765000Y3310000D01*
Y3320000D01*
X1755000D01*
X1750000Y3325000D01*
X1740000D01*
X1730000Y3315000D01*
Y3305000D01*
Y3285000D01*
D02*
G37*
D13*
X1049474Y3380000D02*
D03*
X980526D02*
D03*
X980526Y3485000D02*
D03*
X1049474D02*
D03*
D15*
X2327435Y2210000D02*
D03*
X2252565D02*
D03*
X397436Y2705000D02*
D03*
X322564D02*
D03*
D16*
X2520000Y915000D02*
D03*
Y875000D02*
D03*
X85000Y2620000D02*
D03*
X125000D02*
D03*
X140000Y2420000D02*
D03*
Y2460000D02*
D03*
X445000Y3195000D02*
D03*
X405000D02*
D03*
X1150000Y3465000D02*
D03*
X1110000D02*
D03*
X1750000Y3275000D02*
D03*
Y3315000D02*
D03*
X2340000Y1020000D02*
D03*
Y980000D02*
D03*
X1270000Y300000D02*
D03*
X1230000D02*
D03*
X275000Y1250000D02*
D03*
Y1210000D02*
D03*
D17*
X3194573Y701369D02*
D03*
X3758739Y468771D02*
D03*
X3573739Y683771D02*
D03*
X3383739Y503771D02*
D03*
D18*
X3194573Y626566D02*
D03*
X3266241Y663968D02*
D03*
X3758739Y393968D02*
D03*
X3830407Y431369D02*
D03*
X3573739Y608968D02*
D03*
X3645407Y646369D02*
D03*
X3383739Y428968D02*
D03*
X3455407Y466369D02*
D03*
D19*
X3038425Y625000D02*
D03*
X3091575D02*
D03*
X3612614Y397654D02*
D03*
X3665763D02*
D03*
X3398425Y600000D02*
D03*
X3451575D02*
D03*
X3270764Y402654D02*
D03*
X3217614D02*
D03*
D20*
X3795000Y1880000D02*
D03*
X3815000Y2335000D02*
D03*
X2850000Y585000D02*
D03*
X1745000Y2835000D02*
D03*
X1850000Y2500000D02*
D03*
D22*
X522678Y2825158D02*
D03*
Y2844842D02*
D03*
Y2864528D02*
D03*
X857322Y2903898D02*
D03*
Y2805472D02*
D03*
Y2785788D02*
D03*
Y2766102D02*
D03*
X522678Y2903898D02*
D03*
Y2943268D02*
D03*
Y2884212D02*
D03*
X857322D02*
D03*
Y2844842D02*
D03*
X522678Y2785788D02*
D03*
X857322Y2746418D02*
D03*
Y2825158D02*
D03*
Y2864528D02*
D03*
Y2726732D02*
D03*
X522678Y2805472D02*
D03*
Y2726732D02*
D03*
X857322Y2943268D02*
D03*
X522678Y2746418D02*
D03*
X857322Y2923582D02*
D03*
X522678D02*
D03*
Y2766102D02*
D03*
D23*
X758898Y2667678D02*
D03*
X680158D02*
D03*
X660472D02*
D03*
X640788D02*
D03*
X621102D02*
D03*
X699842Y3002322D02*
D03*
X621102D02*
D03*
X601418Y2667678D02*
D03*
X778582D02*
D03*
X798268D02*
D03*
X699842D02*
D03*
X581732D02*
D03*
Y3002322D02*
D03*
X739212Y2667678D02*
D03*
X719528D02*
D03*
X601418Y3002322D02*
D03*
X758898D02*
D03*
X778582D02*
D03*
X798268D02*
D03*
X640788D02*
D03*
X660472D02*
D03*
X719528D02*
D03*
X680158D02*
D03*
X739212D02*
D03*
D25*
X2640008Y3058830D02*
D03*
X2659694D02*
D03*
X2620324D02*
D03*
X2600638D02*
D03*
D32*
X2856811Y2035000D02*
D03*
X2793819D02*
D03*
D37*
X2620324Y3220248D02*
D03*
X2679378Y3047020D02*
D03*
X2640008Y3220248D02*
D03*
X2580954D02*
D03*
Y3047020D02*
D03*
X2600638Y3220248D02*
D03*
X2679378D02*
D03*
X2659694D02*
D03*
D38*
X2716780Y3182846D02*
D03*
X2543552D02*
D03*
X2716780Y3084422D02*
D03*
Y3143476D02*
D03*
X2543552Y3163162D02*
D03*
X2716780D02*
D03*
X2543552Y3123792D02*
D03*
Y3143476D02*
D03*
Y3104106D02*
D03*
Y3084422D02*
D03*
X2716780Y3104106D02*
D03*
Y3123792D02*
D03*
D43*
X1855000Y2742756D02*
D03*
X1817598Y2837244D02*
D03*
X1892402D02*
D03*
Y2742756D02*
D03*
X1817598D02*
D03*
D44*
X739860Y3485158D02*
D03*
X850140Y3504842D02*
D03*
X739860Y3465472D02*
D03*
Y3504842D02*
D03*
Y3524528D02*
D03*
X850140D02*
D03*
Y3485158D02*
D03*
D45*
X1890000Y3087436D02*
D03*
Y3012564D02*
D03*
D46*
X795000Y3495000D02*
D03*
D47*
X804842Y3439860D02*
D03*
X765472Y3550140D02*
D03*
X785158D02*
D03*
X824528Y3439860D02*
D03*
X785158D02*
D03*
X765472D02*
D03*
X804842Y3550140D02*
D03*
X824528D02*
D03*
D48*
X750000Y3692992D02*
D03*
X935001Y581496D02*
D03*
X750000Y3630000D02*
D03*
X935001Y518504D02*
D03*
D57*
X589588Y870000D02*
D03*
X530412D02*
D03*
D60*
X850140Y3465472D02*
D03*
D84*
X3734862Y3226848D02*
D03*
X2140000Y2805000D02*
D03*
D101*
X2500000Y895000D02*
X2540000D01*
X105000Y2600000D02*
Y2640000D01*
X120000Y2440000D02*
X160000D01*
X425000Y3175000D02*
Y3215000D01*
X1130000Y3445000D02*
Y3485000D01*
X1250000Y280000D02*
Y320000D01*
X255000Y1230000D02*
X295000D01*
X2320000Y1000000D02*
X2360000D01*
X1730000Y3295000D02*
X1770000D01*
D112*
X2540000Y905000D02*
G03*
X2540000Y905000I-20000J0D01*
G01*
Y885000D02*
G03*
X2540000Y885000I-20000J0D01*
G01*
X115000Y2620000D02*
G03*
X115000Y2620000I-20000J0D01*
G01*
X135000D02*
G03*
X135000Y2620000I-20000J0D01*
G01*
X160000Y2430000D02*
G03*
X160000Y2430000I-20000J0D01*
G01*
Y2450000D02*
G03*
X160000Y2450000I-20000J0D01*
G01*
X435000Y3195000D02*
G03*
X435000Y3195000I-20000J0D01*
G01*
X455000D02*
G03*
X455000Y3195000I-20000J0D01*
G01*
X1140000Y3465000D02*
G03*
X1140000Y3465000I-20000J0D01*
G01*
X1160000D02*
G03*
X1160000Y3465000I-20000J0D01*
G01*
X1260000Y300000D02*
G03*
X1260000Y300000I-20000J0D01*
G01*
X1280000D02*
G03*
X1280000Y300000I-20000J0D01*
G01*
X295000Y1240000D02*
G03*
X295000Y1240000I-20000J0D01*
G01*
Y1220000D02*
G03*
X295000Y1220000I-20000J0D01*
G01*
X2360000Y990000D02*
G03*
X2360000Y990000I-20000J0D01*
G01*
Y1010000D02*
G03*
X2360000Y1010000I-20000J0D01*
G01*
X1770000Y3305000D02*
G03*
X1770000Y3305000I-20000J0D01*
G01*
Y3285000D02*
G03*
X1770000Y3285000I-20000J0D01*
G01*
D114*
X2540000Y885000D02*
Y905000D01*
X2500000Y885000D02*
Y905000D01*
X95000Y2640000D02*
X115000D01*
X95000Y2600000D02*
X115000D01*
X120000Y2430000D02*
Y2450000D01*
X160000Y2430000D02*
Y2450000D01*
X415000Y3215000D02*
X435000D01*
X415000Y3175000D02*
X435000D01*
X1120000Y3485000D02*
X1140000D01*
X1120000Y3445000D02*
X1140000D01*
X1240000Y320000D02*
X1260000D01*
X1240000Y280000D02*
X1260000D01*
X295000Y1220000D02*
Y1240000D01*
X255000Y1220000D02*
Y1240000D01*
X2320000Y990000D02*
Y1010000D01*
X2360000Y990000D02*
Y1010000D01*
X1770000Y3285000D02*
Y3305000D01*
X1730000Y3285000D02*
Y3305000D01*
D115*
X3820000Y70000D02*
D03*
X70000D02*
D03*
X3820000Y3820000D02*
D03*
D116*
X2489803Y2210000D02*
D03*
X2415000D02*
D03*
X402402Y2605000D02*
D03*
X327598D02*
D03*
D117*
X1253819Y3460197D02*
D03*
Y3538937D02*
D03*
X1538819Y3528937D02*
D03*
Y3450197D02*
D03*
X1715000Y3533740D02*
D03*
Y3455000D02*
D03*
X1378819Y3533937D02*
D03*
Y3455197D02*
D03*
X2261181Y194804D02*
D03*
Y116064D02*
D03*
D118*
X1577558Y1668464D02*
D03*
X2168110Y1510984D02*
D03*
Y1668464D02*
D03*
X1577558Y1353504D02*
D03*
Y1510984D02*
D03*
X2168110Y1353504D02*
D03*
D119*
X1481890Y3320000D02*
D03*
X718110Y3090000D02*
D03*
X1321890Y3315000D02*
D03*
X1358110D02*
D03*
X1636890Y3330000D02*
D03*
X1673110D02*
D03*
X1518110Y3320000D02*
D03*
X681890Y3090000D02*
D03*
X386890Y870000D02*
D03*
X706890Y2585000D02*
D03*
X771890Y2415000D02*
D03*
X521890Y2595000D02*
D03*
X698109Y2427795D02*
D03*
X520000Y2450000D02*
D03*
X743110Y2585000D02*
D03*
X558110Y2595000D02*
D03*
X423110Y870000D02*
D03*
X556220Y2450000D02*
D03*
X808110Y2415000D02*
D03*
X661889Y2427795D02*
D03*
D120*
X3395045Y696369D02*
D03*
X3220046Y506369D02*
D03*
X3035046Y711369D02*
D03*
X3615045Y501369D02*
D03*
X3094101Y711369D02*
D03*
X3279101Y506369D02*
D03*
X3674101Y501369D02*
D03*
X3454101Y696369D02*
D03*
D121*
X984409Y2725000D02*
D03*
X1035591D02*
D03*
X809410Y645000D02*
D03*
X860590D02*
D03*
D122*
X845000Y2570590D02*
D03*
Y2519410D02*
D03*
X1135000Y2360000D02*
D03*
Y2411180D02*
D03*
X1060000Y2405590D02*
D03*
Y2354410D02*
D03*
D123*
X2801452Y1918023D02*
D03*
X2858539D02*
D03*
D124*
X980000Y2981890D02*
D03*
Y3018110D02*
D03*
X835000Y3663110D02*
D03*
X1155000Y2943111D02*
D03*
X580000Y3111220D02*
D03*
X925000Y2626890D02*
D03*
X820000Y558109D02*
D03*
X650000Y2561890D02*
D03*
X460000Y2688110D02*
D03*
X185000Y1630000D02*
D03*
X835000Y3626890D02*
D03*
X580000Y3075000D02*
D03*
X460000Y2651890D02*
D03*
X820000Y521889D02*
D03*
X185000Y1593780D02*
D03*
X650000Y2598110D02*
D03*
X1155000Y2906889D02*
D03*
X925000Y2663110D02*
D03*
D125*
X2803504Y1715000D02*
D03*
X2866496D02*
D03*
D126*
X2520000Y335472D02*
D03*
Y394527D02*
D03*
X2670000Y330472D02*
D03*
Y389527D02*
D03*
X2800000Y330472D02*
D03*
Y389527D02*
D03*
X2945000Y335472D02*
D03*
Y394528D02*
D03*
D127*
X3133590Y2669500D02*
D03*
D128*
X2619700Y3295410D02*
D03*
X2819754Y3356820D02*
D03*
X2719998Y3356968D02*
D03*
X2769876Y3356820D02*
D03*
X2513976Y3474738D02*
D03*
X2513388Y3356710D02*
D03*
X3720812Y2879260D02*
D03*
X2514204Y2884590D02*
D03*
X2235000Y2878000D02*
D03*
X2180000Y2555000D02*
D03*
X2719998Y3296968D02*
D03*
X2671194Y3296710D02*
D03*
X2563528Y3296776D02*
D03*
X2513388Y3296710D02*
D03*
X2618102Y3412508D02*
D03*
X2565892Y3414070D02*
D03*
X2513976Y3414738D02*
D03*
X2619700Y3355410D02*
D03*
X3025000Y3540000D02*
D03*
X2180000Y2493000D02*
D03*
X2671194Y3356710D02*
D03*
X2618102Y3474508D02*
D03*
X2565892Y3474070D02*
D03*
X3720812Y2817260D02*
D03*
X3025000Y3600000D02*
D03*
X2854462Y3641742D02*
D03*
X2358110D02*
D03*
X2607240D02*
D03*
X2235000Y2940000D02*
D03*
X2358110Y3701742D02*
D03*
X2607240D02*
D03*
X2514204Y2946590D02*
D03*
X2563528Y3356776D02*
D03*
X2769876Y3296820D02*
D03*
X2819754D02*
D03*
X2854462Y3701742D02*
D03*
D129*
X2393886Y3166032D02*
D03*
Y3214146D02*
D03*
X2391886Y3117918D02*
D03*
X2674222Y2976120D02*
D03*
X2453886Y3263720D02*
D03*
Y3214146D02*
D03*
Y3117918D02*
D03*
Y3166032D02*
D03*
X2393886Y3263720D02*
D03*
D130*
X3460820Y2899788D02*
D03*
X3355388Y2896126D02*
D03*
X3254354Y2895786D02*
D03*
X2439512Y2831594D02*
D03*
X2345006D02*
D03*
X2270000Y2605000D02*
D03*
X3259244Y2466410D02*
D03*
X2270000Y2485000D02*
D03*
X3259244Y2586410D02*
D03*
X3254354Y2775786D02*
D03*
X3460820Y2779788D02*
D03*
X3355388Y2776126D02*
D03*
X2345006Y2951594D02*
D03*
X2439512D02*
D03*
D131*
X2718616Y2904914D02*
D03*
X2598616D02*
D03*
D132*
X1870984Y2925000D02*
D03*
X1890000Y2580000D02*
D03*
X449016Y3070000D02*
D03*
X704016Y2510000D02*
D03*
X1819016Y2925000D02*
D03*
X755984Y2510000D02*
D03*
X500984Y3070000D02*
D03*
X1838032Y2580000D02*
D03*
D133*
X688550Y608070D02*
D03*
Y521450D02*
D03*
Y391530D02*
D03*
Y434840D02*
D03*
Y478140D02*
D03*
Y564760D02*
D03*
Y651370D02*
D03*
Y694680D02*
D03*
Y737990D02*
D03*
D134*
X315630Y2810000D02*
D03*
X1119370Y710000D02*
D03*
X376260Y2385000D02*
D03*
X1119370Y615000D02*
D03*
X1115000Y485000D02*
D03*
X1108740Y355000D02*
D03*
X1109370Y210000D02*
D03*
X394370Y2810000D02*
D03*
X1036260Y485000D02*
D03*
X1040630Y615000D02*
D03*
X1030000Y355000D02*
D03*
X455000Y2385000D02*
D03*
X1030630Y210000D02*
D03*
X1040630Y710000D02*
D03*
D135*
X2830000Y2459764D02*
D03*
Y2680236D02*
D03*
D136*
X1890000Y3192598D02*
D03*
Y3267402D02*
D03*
D137*
X935000Y3707402D02*
D03*
Y3632598D02*
D03*
D138*
X2275196Y776180D02*
D03*
X2229803Y393818D02*
D03*
X2134804Y778819D02*
D03*
X1470000Y360000D02*
D03*
X2151063Y393818D02*
D03*
X2056064Y778819D02*
D03*
X1548740Y360000D02*
D03*
X2353936Y776180D02*
D03*
D139*
X3030000Y3450000D02*
D03*
Y3370000D02*
D03*
D140*
X2612222Y2976120D02*
D03*
D141*
X3560000Y2291300D02*
D03*
Y2128700D02*
D03*
D142*
X2797076Y1826428D02*
D03*
X2860069D02*
D03*
D143*
X659020Y785230D02*
D03*
D144*
X285000D02*
D03*
Y175000D02*
D03*
D145*
X662960Y210430D02*
D03*
D146*
X3470000Y1885000D02*
D03*
Y1696000D02*
D03*
X3285000D02*
D03*
Y1885000D02*
D03*
D147*
X3750000Y1430000D02*
D03*
D148*
Y855197D02*
D03*
X3650000D02*
D03*
X3550000D02*
D03*
X3450000D02*
D03*
X3350000D02*
D03*
X3250000D02*
D03*
X3150000D02*
D03*
Y1430000D02*
D03*
X3250000D02*
D03*
X3350000D02*
D03*
X3450000D02*
D03*
X3550000D02*
D03*
X3650000D02*
D03*
D149*
X3008110Y131654D02*
D03*
X2850630D02*
D03*
X2929370D02*
D03*
X3725630Y2193347D02*
D03*
X1887048Y288582D02*
D03*
Y111418D02*
D03*
X2142952Y288582D02*
D03*
X1514370Y3791653D02*
D03*
X2589168Y129746D02*
D03*
X3262520Y85000D02*
D03*
X3341260D02*
D03*
X3183779D02*
D03*
X1435630Y3791653D02*
D03*
X1593110D02*
D03*
X2337048Y507413D02*
D03*
X2175000Y1050129D02*
D03*
X2142952Y679577D02*
D03*
X1718582Y478043D02*
D03*
X2592952Y684577D02*
D03*
X1887048Y502411D02*
D03*
X1541418Y733947D02*
D03*
X1887048Y679577D02*
D03*
X1919094Y872963D02*
D03*
Y1050129D02*
D03*
X2592952Y507413D02*
D03*
X1718582Y733947D02*
D03*
D150*
X2771890Y131654D02*
D03*
X3804370Y2193347D02*
D03*
X2142952Y111418D02*
D03*
X1356890Y3791653D02*
D03*
X2510428Y129746D02*
D03*
X3420000Y85000D02*
D03*
X2142952Y502411D02*
D03*
X2175000Y872963D02*
D03*
X2337048Y684577D02*
D03*
D151*
X1754724Y1392874D02*
D03*
X1990944Y1629094D02*
D03*
D152*
X120000Y1790000D02*
D03*
Y1690000D02*
D03*
Y1590000D02*
D03*
D153*
Y1490000D02*
D03*
D154*
X170000Y2905000D02*
D03*
X120000D02*
D03*
X170000Y2955000D02*
D03*
Y3055000D02*
D03*
Y3005000D02*
D03*
Y2855000D02*
D03*
X120000Y3055000D02*
D03*
Y2855000D02*
D03*
Y3005000D02*
D03*
Y2955000D02*
D03*
D155*
X2890000Y1590000D02*
D03*
X1720000Y3050000D02*
D03*
X2045000Y2435000D02*
D03*
X3800000Y2030000D02*
D03*
D156*
X2790000Y1590000D02*
D03*
X1620000Y3050000D02*
D03*
X3700000Y2030000D02*
D03*
X1945000Y2435000D02*
D03*
D157*
X312165Y3767795D02*
D03*
X135000Y3630000D02*
D03*
X509016Y3441024D02*
D03*
D158*
X2080000Y3795000D02*
D03*
Y3695000D02*
D03*
D159*
X750000Y3245000D02*
D03*
D160*
X671260D02*
D03*
D161*
X2080000Y3595000D02*
D03*
D162*
X1541418Y478043D02*
D03*
D163*
X630000Y2875000D02*
D03*
X800000Y2780000D02*
D03*
X1017179Y2510785D02*
D03*
X3195000Y995000D02*
D03*
X685776Y2550618D02*
D03*
X2750000Y2080000D02*
D03*
X3757622Y357223D02*
D03*
X1107872Y3396718D02*
D03*
X2532402Y2210000D02*
D03*
X720000Y3055000D02*
D03*
X655000Y2945000D02*
D03*
X616000Y3080000D02*
D03*
X1890000Y3315000D02*
D03*
X918000Y3070000D02*
D03*
X805000Y3385000D02*
D03*
X883000Y3350994D02*
D03*
X1216420Y2557000D02*
D03*
X2480000Y1325000D02*
D03*
X2470000Y1830000D02*
D03*
X965000Y3065000D02*
D03*
X1165000Y3540000D02*
D03*
X1280000Y3370000D02*
D03*
X1240000Y3395000D02*
D03*
X1204473Y3557177D02*
D03*
X1635000Y3410000D02*
D03*
X1318887Y3401086D02*
D03*
X795000Y2915000D02*
D03*
X810000Y2870000D02*
D03*
X757982Y2720211D02*
D03*
X2115000Y2060000D02*
D03*
X1225000Y2482473D02*
D03*
X2115000Y1680000D02*
D03*
X3360000Y395000D02*
D03*
X3612530Y356603D02*
D03*
X3520000Y610000D02*
D03*
X3300000Y980000D02*
D03*
X1260000Y2685000D02*
D03*
X1215000Y2675000D02*
D03*
X1259981Y2594923D02*
D03*
X1295000Y2655000D02*
D03*
X3221532Y557391D02*
D03*
X1100000Y2855000D02*
D03*
X1015000Y2565000D02*
D03*
X2060000Y1510000D02*
D03*
X1290000Y2060000D02*
D03*
X1210000Y2090000D02*
D03*
X1994202Y1551359D02*
D03*
X1030000Y2105000D02*
D03*
X1205000Y2030000D02*
D03*
X1027681Y2188736D02*
D03*
X930000Y2699000D02*
D03*
X925000Y2745000D02*
D03*
X3080474Y772807D02*
D03*
X3403760Y789178D02*
D03*
X3400000Y945000D02*
D03*
X1805000Y230000D02*
D03*
X1215000Y2780000D02*
D03*
X1141236Y2781236D02*
D03*
X1175000Y2815000D02*
D03*
X585000Y2915000D02*
D03*
X1005000Y2675000D02*
D03*
X1035000Y2650000D02*
D03*
X1015750Y2141908D02*
D03*
X990000Y1685000D02*
D03*
X1210000Y1515000D02*
D03*
X1030000Y1525000D02*
D03*
X1195000Y1675000D02*
D03*
X490000Y2315000D02*
D03*
X640000D02*
D03*
X1190029Y1369291D02*
D03*
X1020517Y1370920D02*
D03*
X945000Y2910000D02*
D03*
X1005000Y2889528D02*
D03*
X1200000Y2945000D02*
D03*
X975000Y2940000D02*
D03*
X540000Y740000D02*
D03*
X621890Y734160D02*
D03*
X625000Y610000D02*
D03*
X1175000Y615000D02*
D03*
Y480000D02*
D03*
X1163696Y713777D02*
D03*
X520000Y2415000D02*
D03*
X610000Y2505000D02*
D03*
X440760Y2478785D02*
D03*
X556800Y2542600D02*
D03*
X520000Y2510000D02*
D03*
X1185000Y355000D02*
D03*
X330776Y868587D02*
D03*
X950651Y2625945D02*
D03*
X655000Y2515000D02*
D03*
X619253Y2725784D02*
D03*
X580000Y2745000D02*
D03*
Y3145000D02*
D03*
X438319Y3123382D02*
D03*
X460788Y2721883D02*
D03*
X521094Y2641269D02*
D03*
X265000Y2610000D02*
D03*
Y2680000D02*
D03*
X185000Y1675000D02*
D03*
X205000Y2610000D02*
D03*
X195000Y290000D02*
D03*
X360000Y2605000D02*
D03*
X355000Y2705000D02*
D03*
X916792Y3519665D02*
D03*
X1480000Y3400000D02*
D03*
X1185000Y3410000D02*
D03*
X740000Y3355000D02*
D03*
X719897Y2717130D02*
D03*
X680000Y3465000D02*
D03*
X785000Y3505000D02*
D03*
X3325000Y435000D02*
D03*
X3325289Y546432D02*
D03*
X2355000Y3805000D02*
D03*
X1035000Y3010000D02*
D03*
X2607240Y3748084D02*
D03*
X2610000Y3805000D02*
D03*
X2360000Y3745000D02*
D03*
X505000Y285000D02*
D03*
X215000Y625000D02*
D03*
X495000Y645000D02*
D03*
X2239666Y1288744D02*
D03*
X720000Y2470000D02*
D03*
X1890000Y2625000D02*
D03*
X355000Y2810000D02*
D03*
X1680000Y3285000D02*
D03*
X1520000Y3280000D02*
D03*
X1855000Y2790000D02*
D03*
X1358110Y3270000D02*
D03*
X3130000Y2910000D02*
D03*
X3200000Y3045000D02*
D03*
X3390000Y3105000D02*
D03*
X3520000Y3100000D02*
D03*
X3715000Y3090000D02*
D03*
X2515000Y3225000D02*
D03*
X3195000Y3270000D02*
D03*
X3365000D02*
D03*
X3545000D02*
D03*
X3705000Y3285000D02*
D03*
X2885000Y3495000D02*
D03*
X2920000Y3360000D02*
D03*
D164*
X2430000Y1720000D02*
D03*
X2475000Y1645000D02*
D03*
X2570000Y1560000D02*
D03*
X3700000Y750000D02*
D03*
X2620000Y1410000D02*
D03*
X894556Y3152976D02*
D03*
X2521600Y1287329D02*
D03*
X2520000Y1815000D02*
D03*
X1187760Y3497340D02*
D03*
X2335000Y1870000D02*
D03*
X2330000Y1490000D02*
D03*
X1480000Y3525000D02*
D03*
X1320000Y3515000D02*
D03*
D165*
X3065000Y2070000D02*
D03*
X1635000Y3530000D02*
D03*
X645000Y3605000D02*
D03*
X640000Y3550000D02*
D03*
D166*
X139685Y1041575D02*
D03*
X139685Y2238426D02*
D03*
X1261732Y1041575D02*
D03*
Y2238426D02*
D03*
D167*
X85000Y2675000D02*
D03*
D168*
X3684606Y1724804D02*
D03*
X1322402Y150000D02*
D03*
X535000Y1724804D02*
D03*
X3684606Y150000D02*
D03*
D169*
X2145000Y3420000D02*
D03*
Y3340000D02*
D03*
%TF.MD5,c878ca19c6b4643d7173e318c8f41e35*%
M02*
